<svg width="20" height="20" viewBox="0 0 20 20" fill="none" xmlns="http://www.w3.org/2000/svg">
<path d="M9.99935 6.25065C9.99935 7.86148 8.69352 9.16732 7.08268 9.16732C5.47185 9.16732 4.16602 7.86148 4.16602 6.25065C4.16602 4.63982 5.47185 3.33398 7.08268 3.33398C8.69352 3.33398 9.99935 4.63982 9.99935 6.25065Z" stroke="white"/>
<path d="M11.25 9.16732C12.8608 9.16732 14.1667 7.86148 14.1667 6.25065C14.1667 4.63982 12.8608 3.33398 11.25 3.33398" stroke="white" stroke-linecap="round"/>
<path d="M10.9518 16.666H3.21363C2.35891 16.666 1.66602 16.0264 1.66602 15.2374C1.66602 13.265 3.39825 11.666 5.53507 11.666H8.63027C9.50127 11.666 10.3051 11.9317 10.9518 12.38" stroke="white" stroke-linecap="round" stroke-linejoin="round"/>
<path d="M15.834 11.666V16.666M18.334 14.166H13.334" stroke="white" stroke-linecap="round"/>
</svg>
