<svg width="12" height="12" viewBox="0 0 12 12" fill="none" xmlns="http://www.w3.org/2000/svg">
<path d="M7.27816 6.60915C6.75701 7.1303 5.91205 7.1303 5.39085 6.60915C4.86972 6.08795 4.86972 5.243 5.39085 4.72182L6.57045 3.54225C7.06785 3.0448 7.8603 3.02216 8.3846 3.47433M8.22186 1.89087C8.74301 1.36971 9.58795 1.36971 10.1092 1.89087C10.6303 2.41204 10.6303 3.25701 10.1092 3.77818L8.92956 4.95775C8.43216 5.4552 7.6397 5.47785 7.1154 5.02565" stroke="white" stroke-linecap="round" stroke-linejoin="round"/>
<path d="M5.24995 1.5C3.60629 1.5 2.78445 1.5 2.23128 1.95395C2.12999 2.03707 2.03712 2.12995 1.95399 2.23124C1.50004 2.7844 1.50003 3.60623 1.50001 5.2499L1.5 6.49995C1.49998 8.3856 1.49998 9.3284 2.08576 9.9142C2.67155 10.5 3.61436 10.5 5.5 10.5H6.74995C8.3937 10.5 9.21555 10.5 9.76875 10.046C9.87 9.9629 9.96285 9.87005 10.046 9.7688C10.4999 9.2156 10.5 8.39375 10.5 6.75" stroke="white" stroke-linecap="round" stroke-linejoin="round"/>
</svg>
