<svg width="14" height="12" viewBox="0 0 14 12" fill="none" xmlns="http://www.w3.org/2000/svg">
<path d="M11.8467 1.55332C10.96 1.13999 10 0.83999 9 0.666657C8.99123 0.666376 8.98251 0.668022 8.97444 0.671477C8.96638 0.674933 8.95917 0.680114 8.95333 0.686657C8.83333 0.906657 8.69333 1.19332 8.6 1.41332C7.53933 1.25332 6.46066 1.25332 5.4 1.41332C5.30666 1.18666 5.16666 0.906657 5.04 0.686657C5.03333 0.673323 5.01333 0.666657 4.99333 0.666657C3.99333 0.83999 3.04 1.13999 2.14666 1.55332C2.14 1.55332 2.13333 1.55999 2.12666 1.56666C0.31333 4.27999 -0.18667 6.91999 0.0599968 9.53332C0.0599968 9.54666 0.0666634 9.55999 0.0799967 9.56666C1.28 10.4467 2.43333 10.98 3.57333 11.3333C3.59333 11.34 3.61333 11.3333 3.62 11.32C3.88666 10.9533 4.12666 10.5667 4.33333 10.16C4.34666 10.1333 4.33333 10.1067 4.30666 10.1C3.92666 9.95332 3.56666 9.77999 3.21333 9.57999C3.18666 9.56666 3.18666 9.52666 3.20666 9.50666C3.28 9.45332 3.35333 9.39332 3.42666 9.33999C3.44 9.32666 3.46 9.32666 3.47333 9.33332C5.76666 10.38 8.24 10.38 10.5067 9.33332C10.52 9.32666 10.54 9.32666 10.5533 9.33999C10.6267 9.39999 10.7 9.45332 10.7733 9.51332C10.8 9.53332 10.8 9.57332 10.7667 9.58666C10.42 9.79332 10.0533 9.95999 9.67333 10.1067C9.64666 10.1133 9.64 10.1467 9.64666 10.1667C9.86 10.5733 10.1 10.96 10.36 11.3267C10.38 11.3333 10.4 11.34 10.42 11.3333C11.5667 10.98 12.72 10.4467 13.92 9.56666C13.9333 9.55999 13.94 9.54666 13.94 9.53332C14.2333 6.51332 13.4533 3.89332 11.8733 1.56666C11.8667 1.55999 11.86 1.55332 11.8467 1.55332ZM4.68 7.93999C3.99333 7.93999 3.42 7.30666 3.42 6.52666C3.42 5.74666 3.98 5.11332 4.68 5.11332C5.38666 5.11332 5.94666 5.75332 5.94 6.52666C5.94 7.30666 5.38 7.93999 4.68 7.93999ZM9.32666 7.93999C8.64 7.93999 8.06666 7.30666 8.06666 6.52666C8.06666 5.74666 8.62666 5.11332 9.32666 5.11332C10.0333 5.11332 10.5933 5.75332 10.5867 6.52666C10.5867 7.30666 10.0333 7.93999 9.32666 7.93999Z" fill="white"/>
</svg>
