<svg width="14" height="14" viewBox="0 0 14 14" fill="none" xmlns="http://www.w3.org/2000/svg">
<path fill-rule="evenodd" clip-rule="evenodd" d="M3.60541 6.02711C3.03505 6.02711 2.91602 6.13905 2.91602 6.67525V7.64749C2.91602 8.18375 3.03505 8.29563 3.60541 8.29563H4.98419V12.1845C4.98419 12.7207 5.10323 12.8327 5.67359 12.8327H7.05237C7.62276 12.8327 7.74176 12.7207 7.74176 12.1845V8.29563H9.28992C9.72252 8.29563 9.834 8.21659 9.95282 7.82558L10.2483 6.85334C10.4518 6.1835 10.3264 6.02711 9.58538 6.02711H7.74176V4.40676C7.74176 4.0488 8.0504 3.75861 8.43114 3.75861H10.3933C10.9636 3.75861 11.0827 3.64669 11.0827 3.11046V1.81416C11.0827 1.27793 10.9636 1.16602 10.3933 1.16602H8.43114C6.52743 1.16602 4.98419 2.61695 4.98419 4.40676V6.02711H3.60541Z" stroke="white" stroke-width="0.6" stroke-linejoin="round"/>
</svg>
