<svg width="12" height="12" viewBox="0 0 12 12" fill="none" xmlns="http://www.w3.org/2000/svg">
<path d="M1.1 4.25H10.9M1.1 7.75H10.9M0.75 6C0.75 6.68944 0.885795 7.37213 1.14963 8.00909C1.41347 8.64605 1.80018 9.2248 2.28769 9.71231C2.7752 10.1998 3.35395 10.5865 3.99091 10.8504C4.62787 11.1142 5.31056 11.25 6 11.25C6.68944 11.25 7.37213 11.1142 8.00909 10.8504C8.64605 10.5865 9.2248 10.1998 9.71231 9.71231C10.1998 9.2248 10.5865 8.64605 10.8504 8.00909C11.1142 7.37213 11.25 6.68944 11.25 6C11.25 4.60761 10.6969 3.27226 9.71231 2.28769C8.72774 1.30312 7.39239 0.75 6 0.75C4.60761 0.75 3.27226 1.30312 2.28769 2.28769C1.30312 3.27226 0.75 4.60761 0.75 6Z" stroke="#D9D9D9" stroke-opacity="0.8" stroke-width="0.5" stroke-linecap="round" stroke-linejoin="round"/>
<path d="M5.7083 0.75C4.72559 2.32477 4.20459 4.14375 4.20459 6C4.20459 7.85625 4.72559 9.67523 5.7083 11.25M6.29164 0.75C7.27436 2.32477 7.79535 4.14375 7.79535 6C7.79535 7.85625 7.27436 9.67523 6.29164 11.25" stroke="#D9D9D9" stroke-opacity="0.8" stroke-width="0.5" stroke-linecap="round" stroke-linejoin="round"/>
</svg>
