<svg width="16" height="16" viewBox="0 0 16 16" fill="none" xmlns="http://www.w3.org/2000/svg">
<path d="M12.7005 3.27402C12.0893 2.65664 11.3613 2.16714 10.5589 1.83406C9.75658 1.50098 8.89593 1.331 8.02719 1.33402C4.38719 1.33402 1.42052 4.30069 1.42052 7.94069C1.42052 9.10736 1.72719 10.2407 2.30052 11.2407L1.36719 14.6674L4.86719 13.7474C5.83385 14.274 6.92052 14.554 8.02719 14.554C11.6672 14.554 14.6339 11.5874 14.6339 7.94736C14.6339 6.18069 13.9472 4.52069 12.7005 3.27402ZM8.02719 13.434C7.04052 13.434 6.07385 13.1674 5.22719 12.6674L5.02719 12.5474L2.94719 13.094L3.50052 11.0674L3.36719 10.8607C2.81902 9.98534 2.52795 8.97352 2.52719 7.94069C2.52719 4.91402 4.99385 2.44736 8.02052 2.44736C9.48719 2.44736 10.8672 3.02069 11.9005 4.06069C12.4122 4.57 12.8177 5.1758 13.0934 5.84297C13.3692 6.51015 13.5099 7.22543 13.5072 7.94736C13.5205 10.974 11.0539 13.434 8.02719 13.434ZM11.0405 9.32736C10.8739 9.24736 10.0605 8.84736 9.91385 8.78736C9.76052 8.73402 9.65385 8.70736 9.54052 8.86736C9.42719 9.03402 9.11385 9.40736 9.02052 9.51402C8.92719 9.62736 8.82719 9.64069 8.66052 9.55402C8.49385 9.47402 7.96052 9.29402 7.33385 8.73402C6.84052 8.29402 6.51385 7.75402 6.41385 7.58736C6.32052 7.42069 6.40052 7.33402 6.48719 7.24736C6.56052 7.17402 6.65385 7.05402 6.73385 6.96069C6.81385 6.86736 6.84719 6.79402 6.90052 6.68736C6.95385 6.57402 6.92719 6.48069 6.88719 6.40069C6.84719 6.32069 6.51385 5.50736 6.38052 5.17402C6.24719 4.85402 6.10719 4.89402 6.00719 4.88736H5.68719C5.57385 4.88736 5.40052 4.92736 5.24719 5.09402C5.10052 5.26069 4.67385 5.66069 4.67385 6.47402C4.67385 7.28736 5.26719 8.07402 5.34719 8.18069C5.42719 8.29402 6.51385 9.96069 8.16719 10.674C8.56052 10.8474 8.86719 10.9474 9.10719 11.0207C9.50052 11.1474 9.86052 11.1274 10.1472 11.0874C10.4672 11.0407 11.1272 10.6874 11.2605 10.3007C11.4005 9.91402 11.4005 9.58736 11.3539 9.51402C11.3072 9.44069 11.2072 9.40736 11.0405 9.32736Z" fill="white"/>
</svg>
