<svg width="16" height="16" viewBox="0 0 16 16" fill="none" xmlns="http://www.w3.org/2000/svg">
<path d="M12.8474 3.55271C11.9607 3.13938 11.0007 2.83938 10.0007 2.66605C9.99196 2.66577 9.98324 2.66741 9.97518 2.67087C9.96711 2.67432 9.95991 2.6795 9.95406 2.68605C9.83406 2.90605 9.69406 3.19271 9.60073 3.41271C8.54006 3.25271 7.4614 3.25271 6.40073 3.41271C6.3074 3.18605 6.1674 2.90605 6.04073 2.68605C6.03406 2.67271 6.01406 2.66605 5.99406 2.66605C4.99406 2.83938 4.04073 3.13938 3.1474 3.55271C3.14073 3.55271 3.13406 3.55938 3.1274 3.56605C1.31406 6.27938 0.814063 8.91938 1.06073 11.5327C1.06073 11.546 1.0674 11.5594 1.08073 11.566C2.28073 12.446 3.43406 12.9794 4.57406 13.3327C4.59406 13.3394 4.61406 13.3327 4.62073 13.3194C4.8874 12.9527 5.1274 12.566 5.33406 12.1594C5.3474 12.1327 5.33406 12.106 5.3074 12.0994C4.9274 11.9527 4.5674 11.7794 4.21406 11.5794C4.1874 11.566 4.1874 11.526 4.2074 11.506C4.28073 11.4527 4.35406 11.3927 4.4274 11.3394C4.44073 11.326 4.46073 11.326 4.47406 11.3327C6.7674 12.3794 9.24073 12.3794 11.5074 11.3327C11.5207 11.326 11.5407 11.326 11.5541 11.3394C11.6274 11.3994 11.7007 11.4527 11.7741 11.5127C11.8007 11.5327 11.8007 11.5727 11.7674 11.586C11.4207 11.7927 11.0541 11.9594 10.6741 12.106C10.6474 12.1127 10.6407 12.146 10.6474 12.166C10.8607 12.5727 11.1007 12.9594 11.3607 13.326C11.3807 13.3327 11.4007 13.3394 11.4207 13.3327C12.5674 12.9794 13.7207 12.446 14.9207 11.566C14.9341 11.5594 14.9407 11.546 14.9407 11.5327C15.2341 8.51271 14.4541 5.89271 12.8741 3.56605C12.8674 3.55938 12.8607 3.55271 12.8474 3.55271ZM5.68073 9.93938C4.99406 9.93938 4.42073 9.30605 4.42073 8.52605C4.42073 7.74605 4.98073 7.11271 5.68073 7.11271C6.3874 7.11271 6.9474 7.75271 6.94073 8.52605C6.94073 9.30605 6.38073 9.93938 5.68073 9.93938ZM10.3274 9.93938C9.64073 9.93938 9.0674 9.30605 9.0674 8.52605C9.0674 7.74605 9.6274 7.11271 10.3274 7.11271C11.0341 7.11271 11.5941 7.75271 11.5874 8.52605C11.5874 9.30605 11.0341 9.93938 10.3274 9.93938Z" fill="white"/>
</svg>
