<svg width="15" height="24" viewBox="0 0 15 24" fill="none" xmlns="http://www.w3.org/2000/svg">
<path d="M10.7501 18C10.7499 18.1482 10.7059 18.2931 10.6235 18.4163C10.541 18.5396 10.424 18.6356 10.287 18.6923C10.15 18.749 9.99933 18.7639 9.85394 18.735C9.70854 18.7061 9.57496 18.6348 9.47007 18.53L3.47007 12.53C3.32962 12.3894 3.25073 12.1988 3.25073 12C3.25073 11.8013 3.32962 11.6106 3.47007 11.47L9.47007 5.47C9.57496 5.36525 9.70854 5.29392 9.85394 5.26504C9.99933 5.23615 10.15 5.251 10.287 5.30772C10.424 5.36443 10.541 5.46045 10.6235 5.58367C10.7059 5.70689 10.7499 5.85176 10.7501 6L10.7501 18Z" fill="white"/>
</svg>
