<svg width="27" height="32" viewBox="0 0 27 32" fill="none" xmlns="http://www.w3.org/2000/svg">
<path d="M22.7603 4.00812C17.5536 -1.11354 9.11194 -1.11354 3.90528 4.00812C2.66908 5.21585 1.68679 6.65851 1.01613 8.25131C0.34548 9.8441 0 11.5549 0 13.2831C0 15.0114 0.34548 16.7221 1.01613 18.3149C1.68679 19.9077 2.66908 21.3504 3.90528 22.5581L13.3319 31.8331L22.7603 22.5581C23.9965 21.3504 24.9788 19.9077 25.6494 18.3149C26.3201 16.7221 26.6655 15.0114 26.6655 13.2831C26.6655 11.5549 26.3201 9.8441 25.6494 8.25131C24.9788 6.65851 23.9965 5.21585 22.7603 4.00812ZM13.3319 17.6665C12.2186 17.6665 11.1736 17.2331 10.3853 16.4465C9.60486 15.6644 9.16657 14.6046 9.16657 13.4998C9.16657 12.3949 9.60486 11.3352 10.3853 10.5531C11.1719 9.76646 12.2186 9.33312 13.3319 9.33312C14.4453 9.33312 15.4919 9.76646 16.2786 10.5531C17.059 11.3352 17.4973 12.3949 17.4973 13.4998C17.4973 14.6046 17.059 15.6644 16.2786 16.4465C15.4919 17.2331 14.4453 17.6665 13.3319 17.6665Z" fill="#D9D9D9" fill-opacity="0.8"/>
</svg>
