<svg width="146" height="29" viewBox="0 0 146 29" fill="none" xmlns="http://www.w3.org/2000/svg">
<path d="M10.7557 10.7784C10.6989 10.1534 10.446 9.66761 9.99716 9.32102C9.55398 8.96875 8.92045 8.79261 8.09659 8.79261C7.55114 8.79261 7.09659 8.86364 6.73295 9.00568C6.36932 9.14773 6.09659 9.34375 5.91477 9.59375C5.73295 9.83807 5.6392 10.1193 5.63352 10.4375C5.62216 10.6989 5.6733 10.929 5.78693 11.1278C5.90625 11.3267 6.0767 11.5028 6.2983 11.6562C6.52557 11.804 6.7983 11.9347 7.11648 12.0483C7.43466 12.1619 7.79261 12.2614 8.19034 12.3466L9.69034 12.6875C10.554 12.875 11.3153 13.125 11.9744 13.4375C12.6392 13.75 13.196 14.1222 13.6449 14.554C14.0994 14.9858 14.4432 15.483 14.6761 16.0455C14.9091 16.608 15.0284 17.2386 15.0341 17.9375C15.0284 19.0398 14.75 19.9858 14.1989 20.7756C13.6477 21.5653 12.8551 22.1705 11.821 22.5909C10.7926 23.0114 9.55114 23.2216 8.09659 23.2216C6.63636 23.2216 5.36364 23.0028 4.27841 22.5653C3.19318 22.1278 2.34943 21.4631 1.74716 20.571C1.14489 19.679 0.835227 18.5511 0.818182 17.1875H4.85795C4.89205 17.75 5.04261 18.2188 5.30966 18.5938C5.5767 18.9688 5.94318 19.2528 6.40909 19.446C6.88068 19.6392 7.42614 19.7358 8.04545 19.7358C8.61364 19.7358 9.09659 19.6591 9.49432 19.5057C9.89773 19.3523 10.2074 19.1392 10.4233 18.8665C10.6392 18.5937 10.75 18.2812 10.7557 17.929C10.75 17.5994 10.6477 17.3182 10.4489 17.0852C10.25 16.8466 9.94318 16.642 9.52841 16.4716C9.11932 16.2955 8.59659 16.1335 7.96023 15.9858L6.13636 15.5597C4.625 15.2131 3.43466 14.6534 2.56534 13.8807C1.69602 13.1023 1.2642 12.0511 1.26989 10.7273C1.2642 9.64773 1.55398 8.7017 2.1392 7.8892C2.72443 7.0767 3.53409 6.44318 4.56818 5.98864C5.60227 5.53409 6.78125 5.30682 8.10511 5.30682C9.45739 5.30682 10.6307 5.53693 11.625 5.99716C12.625 6.4517 13.4006 7.09091 13.9517 7.91477C14.5028 8.73864 14.7841 9.69318 14.7955 10.7784H10.7557ZM24.554 9.90909V12.9773H16.2955V9.90909H24.554ZM18.0256 6.77273H22.1932V18.8835C22.1932 19.1392 22.233 19.3466 22.3125 19.5057C22.3977 19.6591 22.5199 19.7699 22.679 19.8381C22.8381 19.9006 23.0284 19.9318 23.25 19.9318C23.4091 19.9318 23.5767 19.9176 23.7528 19.8892C23.9347 19.8551 24.071 19.8267 24.1619 19.804L24.7926 22.8125C24.5938 22.8693 24.3125 22.9403 23.9489 23.0256C23.5909 23.1108 23.1619 23.1648 22.6619 23.1875C21.6847 23.233 20.8466 23.1193 20.1477 22.8466C19.4545 22.5682 18.9233 22.1364 18.554 21.5511C18.1903 20.9659 18.0142 20.2301 18.0256 19.3438V6.77273ZM30.3707 23.2216C29.5355 23.2216 28.794 23.0824 28.1463 22.804C27.5043 22.5199 26.9957 22.0937 26.6207 21.5256C26.2514 20.9517 26.0668 20.233 26.0668 19.3693C26.0668 18.642 26.1946 18.0284 26.4503 17.5284C26.706 17.0284 27.0582 16.6222 27.5071 16.3097C27.956 15.9972 28.473 15.7614 29.0582 15.6023C29.6435 15.4375 30.2685 15.3267 30.9332 15.2699C31.6776 15.2017 32.277 15.1307 32.7315 15.0568C33.1861 14.9773 33.5156 14.8665 33.7202 14.7244C33.9304 14.5767 34.0355 14.3693 34.0355 14.1023V14.0597C34.0355 13.6222 33.8849 13.2841 33.5838 13.0455C33.2827 12.8068 32.8764 12.6875 32.3651 12.6875C31.8139 12.6875 31.3707 12.8068 31.0355 13.0455C30.7003 13.2841 30.4872 13.6136 30.3963 14.0341L26.5526 13.8977C26.6662 13.1023 26.9588 12.392 27.4304 11.767C27.9077 11.1364 28.5611 10.642 29.3906 10.2841C30.2259 9.92045 31.2287 9.73864 32.3991 9.73864C33.2344 9.73864 34.0043 9.83807 34.7088 10.0369C35.4134 10.2301 36.027 10.5142 36.5497 10.8892C37.0724 11.2585 37.4759 11.7131 37.7599 12.2528C38.0497 12.7926 38.1946 13.4091 38.1946 14.1023V23H34.2741V21.1761H34.1719C33.9389 21.6193 33.6406 21.9943 33.277 22.3011C32.919 22.608 32.4957 22.8381 32.0071 22.9915C31.5241 23.1449 30.9787 23.2216 30.3707 23.2216ZM31.6577 20.4943C32.1065 20.4943 32.5099 20.4034 32.8679 20.2216C33.2315 20.0398 33.5213 19.7898 33.7372 19.4716C33.9531 19.1477 34.0611 18.7727 34.0611 18.3466V17.1023C33.9418 17.1648 33.7969 17.2216 33.6264 17.2727C33.4616 17.3239 33.2798 17.3722 33.081 17.4176C32.8821 17.4631 32.6776 17.5028 32.4673 17.5369C32.2571 17.571 32.0554 17.6023 31.8622 17.6307C31.4702 17.6932 31.1349 17.7898 30.8565 17.9205C30.5838 18.0511 30.3736 18.2216 30.2259 18.4318C30.0838 18.6364 30.0128 18.8807 30.0128 19.1648C30.0128 19.5966 30.1662 19.9261 30.473 20.1534C30.7855 20.3807 31.1804 20.4943 31.6577 20.4943ZM40.7429 23V9.90909H44.7912V12.2955H44.9276C45.1662 11.4318 45.5554 10.7898 46.0952 10.3693C46.6349 9.94318 47.2628 9.73011 47.9787 9.73011C48.1719 9.73011 48.3707 9.74432 48.5753 9.77273C48.7798 9.79545 48.9702 9.83239 49.1463 9.88352V13.5057C48.9474 13.4375 48.6861 13.3835 48.3622 13.3438C48.044 13.304 47.7599 13.2841 47.5099 13.2841C47.0156 13.2841 46.5696 13.3949 46.1719 13.6165C45.7798 13.8324 45.4702 14.1364 45.2429 14.5284C45.0213 14.9148 44.9105 15.3693 44.9105 15.892V23H40.7429ZM54.603 19.5653L54.62 14.5966H55.1996L58.8814 9.90909H63.603L58.1314 16.625H57.032L54.603 19.5653ZM50.8445 23V5.54545H55.0121V23H50.8445ZM58.9751 23L55.549 17.5625L58.2933 14.6051L63.7905 23H58.9751Z" fill="white"/>
<mask id="path-2-outside-1_526_657" maskUnits="userSpaceOnUse" x="63" y="4" width="83" height="21" fill="black">
<rect fill="white" x="63" y="4" width="83" height="21"/>
<path d="M64.7756 23L66.2244 5.54545H78.3949L78.1051 8.97159H70.1534L69.8636 12.5511H77.1932L76.9034 15.9858H69.5739L69.2841 19.5739H77.2358L76.946 23H64.7756ZM93.3778 9.90909L87.7955 23H83.0227L79.6307 9.90909H83.9432L85.6136 18.9261H85.75L88.9119 9.90909H93.3778ZM99.5653 23.2472C98.196 23.2472 97.0369 22.9773 96.0881 22.4375C95.1449 21.892 94.4489 21.1165 94 20.1108C93.5511 19.0994 93.3864 17.8977 93.5057 16.5057C93.6193 15.1534 93.9858 13.9716 94.6051 12.9602C95.2244 11.9432 96.0426 11.1534 97.0597 10.5909C98.0767 10.0227 99.2443 9.73864 100.562 9.73864C101.494 9.73864 102.332 9.88352 103.077 10.1733C103.827 10.4631 104.46 10.8949 104.977 11.4688C105.494 12.0369 105.872 12.7358 106.111 13.5653C106.355 14.3949 106.432 15.3466 106.341 16.4205L106.256 17.4602H94.8864L95.0739 15.0398H102.574C102.608 14.5966 102.537 14.2017 102.361 13.8551C102.19 13.5085 101.938 13.2386 101.602 13.0455C101.267 12.8466 100.869 12.7472 100.409 12.7472C99.9489 12.7472 99.5256 12.8523 99.1392 13.0625C98.7528 13.2727 98.4375 13.5568 98.1932 13.9148C97.9489 14.267 97.8011 14.6676 97.75 15.1165L97.5284 17.5966C97.483 18.1364 97.5455 18.6051 97.7159 19.0028C97.892 19.4006 98.1648 19.7074 98.5341 19.9233C98.9034 20.1335 99.358 20.2386 99.8977 20.2386C100.261 20.2386 100.597 20.1875 100.903 20.0852C101.216 19.983 101.489 19.8324 101.722 19.6335C101.955 19.4347 102.139 19.1903 102.276 18.9006L106.085 19.0114C105.852 19.8693 105.44 20.6165 104.849 21.2528C104.264 21.8835 103.523 22.375 102.625 22.7273C101.733 23.0739 100.713 23.2472 99.5653 23.2472ZM112.722 15.5341L112.109 23H107.941L109.032 9.90909H112.995L112.79 12.3125H112.935C113.288 11.5114 113.833 10.8835 114.572 10.429C115.31 9.96875 116.165 9.73864 117.137 9.73864C118.052 9.73864 118.833 9.94318 119.481 10.3523C120.129 10.7614 120.609 11.3352 120.921 12.0739C121.239 12.8125 121.353 13.6733 121.262 14.6562L120.563 23H116.404L117.026 15.4744C117.089 14.7528 116.952 14.1875 116.617 13.7784C116.282 13.3636 115.782 13.1562 115.117 13.1562C114.685 13.1562 114.296 13.2528 113.95 13.446C113.603 13.6335 113.322 13.9034 113.106 14.2557C112.896 14.608 112.768 15.0341 112.722 15.5341ZM131.615 9.90909L131.351 12.9773H123.092L123.357 9.90909H131.615ZM125.342 6.77273H129.51L128.504 18.8835C128.482 19.1392 128.504 19.3466 128.572 19.5057C128.646 19.6591 128.76 19.7699 128.913 19.8381C129.067 19.9006 129.254 19.9318 129.476 19.9318C129.629 19.9318 129.797 19.9148 129.979 19.8807C130.166 19.8466 130.308 19.821 130.405 19.804L130.78 22.8125C130.575 22.875 130.288 22.946 129.919 23.0256C129.555 23.1108 129.124 23.1648 128.624 23.1875C127.635 23.2273 126.803 23.1108 126.126 22.8381C125.456 22.5597 124.962 22.1278 124.643 21.5426C124.331 20.9574 124.217 20.2244 124.303 19.3438L125.342 6.77273ZM144.657 13.9062L140.864 14.0085C140.847 13.7301 140.762 13.4858 140.609 13.2756C140.455 13.0653 140.248 12.9006 139.987 12.7812C139.731 12.6562 139.427 12.5938 139.075 12.5938C138.569 12.5938 138.126 12.7017 137.745 12.9176C137.364 13.1335 137.16 13.4205 137.131 13.7784C137.114 14.0057 137.197 14.2045 137.379 14.375C137.56 14.5455 137.921 14.6875 138.461 14.8011L140.95 15.2784C142.234 15.5284 143.177 15.9517 143.779 16.5483C144.387 17.1449 144.651 17.9347 144.572 18.9176C144.492 19.7983 144.168 20.5625 143.6 21.2102C143.038 21.858 142.293 22.3608 141.367 22.7188C140.441 23.071 139.401 23.2472 138.248 23.2472C136.356 23.2472 134.896 22.8608 133.867 22.0881C132.839 21.3153 132.302 20.2841 132.256 18.9943L136.347 18.892C136.398 19.3693 136.597 19.733 136.944 19.983C137.29 20.2273 137.745 20.3523 138.308 20.358C138.87 20.3636 139.339 20.2528 139.714 20.0256C140.094 19.7983 140.302 19.5085 140.336 19.1562C140.347 18.8892 140.239 18.6761 140.012 18.517C139.785 18.358 139.404 18.2244 138.87 18.1165L136.62 17.6903C135.33 17.446 134.381 16.9943 133.773 16.3352C133.171 15.6705 132.915 14.8239 133.006 13.7955C133.075 12.9375 133.364 12.2074 133.876 11.6051C134.387 10.9972 135.083 10.5341 135.964 10.2159C136.844 9.89773 137.864 9.73864 139.023 9.73864C140.825 9.73864 142.214 10.1108 143.191 10.8551C144.174 11.5937 144.663 12.6108 144.657 13.9062Z"/>
</mask>
<path d="M64.7756 23L63.779 22.9173L63.6891 24H64.7756V23ZM66.2244 5.54545V4.54545H65.304L65.2279 5.46273L66.2244 5.54545ZM78.3949 5.54545L79.3913 5.62973L79.483 4.54545H78.3949V5.54545ZM78.1051 8.97159V9.97159H79.0241L79.1016 9.05587L78.1051 8.97159ZM70.1534 8.97159V7.97159H69.2311L69.1567 8.8909L70.1534 8.97159ZM69.8636 12.5511L68.8669 12.4704L68.7794 13.5511H69.8636V12.5511ZM77.1932 12.5511L78.1896 12.6352L78.2811 11.5511H77.1932V12.5511ZM76.9034 15.9858V16.9858H77.8226L77.8999 16.0699L76.9034 15.9858ZM69.5739 15.9858V14.9858H68.6514L68.5771 15.9053L69.5739 15.9858ZM69.2841 19.5739L68.2873 19.4934L68.2001 20.5739H69.2841V19.5739ZM77.2358 19.5739L78.2322 19.6581L78.3239 18.5739H77.2358V19.5739ZM76.946 23V24H77.865L77.9425 23.0843L76.946 23ZM65.7721 23.0827L67.221 5.62818L65.2279 5.46273L63.779 22.9173L65.7721 23.0827ZM66.2244 6.54545H78.3949V4.54545H66.2244V6.54545ZM77.3984 5.46118L77.1087 8.88731L79.1016 9.05587L79.3913 5.62973L77.3984 5.46118ZM78.1051 7.97159H70.1534V9.97159H78.1051V7.97159ZM69.1567 8.8909L68.8669 12.4704L70.8604 12.6318L71.1501 9.05228L69.1567 8.8909ZM69.8636 13.5511H77.1932V11.5511H69.8636V13.5511ZM76.1967 12.4671L75.9069 15.9017L77.8999 16.0699L78.1896 12.6352L76.1967 12.4671ZM76.9034 14.9858H69.5739V16.9858H76.9034V14.9858ZM68.5771 15.9053L68.2873 19.4934L70.2808 19.6544L70.5706 16.0663L68.5771 15.9053ZM69.2841 20.5739H77.2358V18.5739H69.2841V20.5739ZM76.2394 19.4896L75.9496 22.9157L77.9425 23.0843L78.2322 19.6581L76.2394 19.4896ZM76.946 22H64.7756V24H76.946V22ZM93.3778 9.90909L94.2977 10.3013L94.8914 8.90909H93.3778V9.90909ZM87.7955 23V24H88.4562L88.7153 23.3923L87.7955 23ZM83.0227 23L82.0547 23.2508L82.2488 24H83.0227V23ZM79.6307 9.90909V8.90909H78.3385L78.6627 10.1599L79.6307 9.90909ZM83.9432 9.90909L84.9265 9.72693L84.7749 8.90909H83.9432V9.90909ZM85.6136 18.9261L84.6304 19.1083L84.7819 19.9261H85.6136V18.9261ZM85.75 18.9261V19.9261H86.459L86.6937 19.257L85.75 18.9261ZM88.9119 9.90909V8.90909H88.2029L87.9683 9.57818L88.9119 9.90909ZM92.458 9.51683L86.8756 22.6077L88.7153 23.3923L94.2977 10.3013L92.458 9.51683ZM87.7955 22H83.0227V24H87.7955V22ZM83.9908 22.7492L80.5987 9.65826L78.6627 10.1599L82.0547 23.2508L83.9908 22.7492ZM79.6307 10.9091H83.9432V8.90909H79.6307V10.9091ZM82.9599 10.0912L84.6304 19.1083L86.5969 18.744L84.9265 9.72693L82.9599 10.0912ZM85.6136 19.9261H85.75V17.9261H85.6136V19.9261ZM86.6937 19.257L89.8556 10.24L87.9683 9.57818L84.8063 18.5952L86.6937 19.257ZM88.9119 10.9091H93.3778V8.90909H88.9119V10.9091ZM96.0881 22.4375L95.5874 23.3032L95.5936 23.3067L96.0881 22.4375ZM94 20.1108L93.086 20.5165L93.0868 20.5184L94 20.1108ZM93.5057 16.5057L94.502 16.5911L94.5022 16.5894L93.5057 16.5057ZM94.6051 12.9602L95.4579 13.4825L95.4592 13.4803L94.6051 12.9602ZM97.0597 10.5909L97.5436 11.466L97.5474 11.4639L97.0597 10.5909ZM103.077 10.1733L102.714 11.1052L102.716 11.1061L103.077 10.1733ZM104.977 11.4688L104.234 12.1381L104.238 12.1418L104.977 11.4688ZM106.111 13.5653L105.15 13.8418L105.152 13.8479L106.111 13.5653ZM106.341 16.4205L105.344 16.3361L105.344 16.3388L106.341 16.4205ZM106.256 17.4602V18.4602H107.177L107.252 17.5419L106.256 17.4602ZM94.8864 17.4602L93.8894 17.383L93.8059 18.4602H94.8864V17.4602ZM95.0739 15.0398V14.0398H94.1483L94.0769 14.9625L95.0739 15.0398ZM102.574 15.0398V16.0398H103.5L103.571 15.1165L102.574 15.0398ZM102.361 13.8551L101.463 14.2965L101.469 14.3082L102.361 13.8551ZM101.602 13.0455L101.092 13.9056L101.103 13.9119L101.602 13.0455ZM99.1392 13.0625L99.6171 13.9409L99.6172 13.9409L99.1392 13.0625ZM98.1932 13.9148L99.0149 14.4847L99.0191 14.4785L98.1932 13.9148ZM97.75 15.1165L96.7564 15.0033L96.7551 15.0154L96.754 15.0275L97.75 15.1165ZM97.5284 17.5966L96.5324 17.5076L96.5319 17.5127L97.5284 17.5966ZM97.7159 19.0028L96.7967 19.3968L96.8016 19.4078L97.7159 19.0028ZM98.5341 19.9233L98.0294 20.7866L98.0394 20.7924L98.5341 19.9233ZM100.903 20.0852L100.592 19.1348L100.587 19.1365L100.903 20.0852ZM102.276 18.9006L102.305 17.901L101.65 17.8819L101.371 18.4748L102.276 18.9006ZM106.085 19.0114L107.05 19.2734L107.383 18.0487L106.114 18.0118L106.085 19.0114ZM104.849 21.2528L104.117 20.5724L104.116 20.5726L104.849 21.2528ZM102.625 22.7273L102.987 23.6594L102.99 23.6582L102.625 22.7273ZM99.5653 22.2472C98.3259 22.2472 97.3469 22.0031 96.5825 21.5683L95.5936 23.3067C96.7269 23.9514 98.0661 24.2472 99.5653 24.2472V22.2472ZM96.5887 21.5718C95.8299 21.133 95.2772 20.5188 94.9132 19.7032L93.0868 20.5184C93.6205 21.7142 94.4598 22.6511 95.5874 23.3032L96.5887 21.5718ZM94.914 19.7051C94.5493 18.8833 94.3934 17.8584 94.502 16.5911L92.5093 16.4203C92.3793 17.937 92.553 19.3156 93.086 20.5165L94.914 19.7051ZM94.5022 16.5894C94.6046 15.37 94.9311 14.3428 95.4579 13.4825L93.7523 12.438C93.0405 13.6003 92.634 14.9368 92.5092 16.4219L94.5022 16.5894ZM95.4592 13.4803C95.9904 12.608 96.6826 11.9422 97.5436 11.466L96.5757 9.71583C95.4026 10.3646 94.4584 11.2784 93.751 12.4401L95.4592 13.4803ZM97.5474 11.4639C98.3966 10.9895 99.3923 10.7386 100.562 10.7386V8.73864C99.0964 8.73864 97.7568 9.05599 96.5719 9.7179L97.5474 11.4639ZM100.562 10.7386C101.391 10.7386 102.103 10.8673 102.714 11.1052L103.439 9.24142C102.562 8.89979 101.598 8.73864 100.562 8.73864V10.7386ZM102.716 11.1061C103.326 11.3417 103.827 11.6857 104.234 12.1381L105.72 10.7994C105.094 10.1041 104.327 9.58445 103.437 9.2405L102.716 11.1061ZM104.238 12.1418C104.639 12.5832 104.948 13.1413 105.15 13.8418L107.072 13.2889C106.796 12.3303 106.349 11.4907 105.717 10.7957L104.238 12.1418ZM105.152 13.8479C105.353 14.5332 105.427 15.3565 105.344 16.3361L107.337 16.5048C107.436 15.3367 107.357 14.2566 107.07 13.2828L105.152 13.8479ZM105.344 16.3388L105.259 17.3785L107.252 17.5419L107.338 16.5021L105.344 16.3388ZM106.256 16.4602H94.8864V18.4602H106.256V16.4602ZM95.8834 17.5375L96.0709 15.117L94.0769 14.9625L93.8894 17.383L95.8834 17.5375ZM95.0739 16.0398H102.574V14.0398H95.0739V16.0398ZM103.571 15.1165C103.617 14.5171 103.523 13.9346 103.252 13.4021L101.469 14.3082C101.551 14.4688 101.599 14.6761 101.577 14.9631L103.571 15.1165ZM103.258 13.4138C103 12.8888 102.608 12.4711 102.102 12.179L101.103 13.9119C101.267 14.0062 101.381 14.1282 101.463 14.2964L103.258 13.4138ZM102.112 12.1854C101.597 11.8796 101.016 11.7472 100.409 11.7472V13.7472C100.722 13.7472 100.937 13.8136 101.092 13.9055L102.112 12.1854ZM100.409 11.7472C99.7899 11.7472 99.2012 11.8903 98.6613 12.1841L99.6172 13.9409C99.85 13.8142 100.108 13.7472 100.409 13.7472V11.7472ZM98.6613 12.1841C98.1377 12.469 97.7023 12.8601 97.3672 13.351L99.0191 14.4785C99.1727 14.2536 99.3679 14.0765 99.6171 13.9409L98.6613 12.1841ZM97.3715 13.3449C97.0279 13.8402 96.8252 14.3995 96.7564 15.0033L98.7436 15.2297C98.7771 14.9358 98.8698 14.6939 99.0149 14.4847L97.3715 13.3449ZM96.754 15.0275L96.5324 17.5076L98.5244 17.6856L98.746 15.2055L96.754 15.0275ZM96.5319 17.5127C96.4761 18.1753 96.5475 18.8152 96.7968 19.3968L98.6351 18.6089C98.5434 18.395 98.4898 18.0974 98.5249 17.6805L96.5319 17.5127ZM96.8016 19.4078C97.0612 19.994 97.4755 20.4628 98.0294 20.7866L99.0388 19.06C98.854 18.952 98.7229 18.8071 98.6303 18.5979L96.8016 19.4078ZM98.0394 20.7924C98.595 21.1086 99.2305 21.2386 99.8977 21.2386V19.2386C99.4854 19.2386 99.2119 19.1584 99.0288 19.0542L98.0394 20.7924ZM99.8977 21.2386C100.356 21.2386 100.799 21.1741 101.22 21.0339L100.587 19.1365C100.394 19.2009 100.167 19.2386 99.8977 19.2386V21.2386ZM101.214 21.0356C101.642 20.8958 102.032 20.6838 102.371 20.3941L101.072 18.873C100.946 18.981 100.79 19.0701 100.592 19.1348L101.214 21.0356ZM102.371 20.3941C102.717 20.0988 102.986 19.7386 103.18 19.3264L101.371 18.4748C101.292 18.6421 101.192 18.7705 101.072 18.873L102.371 20.3941ZM102.246 19.9001L106.056 20.0109L106.114 18.0118L102.305 17.901L102.246 19.9001ZM105.12 18.7493C104.929 19.4549 104.595 20.0575 104.117 20.5724L105.582 21.9333C106.286 21.1754 106.776 20.2837 107.05 19.2734L105.12 18.7493ZM104.116 20.5726C103.645 21.0805 103.035 21.4923 102.26 21.7964L102.99 23.6582C104.011 23.2577 104.883 22.6865 105.582 21.933L104.116 20.5726ZM102.263 21.7952C101.507 22.0889 100.613 22.2472 99.5653 22.2472V24.2472C100.813 24.2472 101.959 24.0588 102.987 23.6594L102.263 21.7952ZM112.722 15.5341L111.726 15.4436L111.726 15.4522L112.722 15.5341ZM112.109 23V24H113.03L113.105 23.0819L112.109 23ZM107.941 23L106.945 22.917L106.854 24H107.941V23ZM109.032 9.90909V8.90909H108.112L108.035 9.82605L109.032 9.90909ZM112.995 9.90909L113.991 9.99389L114.084 8.90909H112.995V9.90909ZM112.79 12.3125L111.794 12.2277L111.702 13.3125H112.79V12.3125ZM112.935 12.3125V13.3125H113.588L113.851 12.715L112.935 12.3125ZM114.572 10.429L115.096 11.2806L115.101 11.2777L114.572 10.429ZM119.481 10.3523L118.947 11.1978V11.1978L119.481 10.3523ZM120.921 12.0739L120 12.4635L120.003 12.4695L120.921 12.0739ZM121.262 14.6562L120.266 14.5642L120.266 14.5728L121.262 14.6562ZM120.563 23V24H121.483L121.56 23.0835L120.563 23ZM116.404 23L115.408 22.9176L115.318 24H116.404V23ZM117.026 15.4744L116.03 15.3881L116.03 15.392L117.026 15.4744ZM116.617 13.7784L115.839 14.407L115.844 14.4122L116.617 13.7784ZM113.95 13.446L114.425 14.3256L114.436 14.3195L113.95 13.446ZM113.106 14.2557L112.253 13.7331L112.247 13.7432L113.106 14.2557ZM111.726 15.4522L111.112 22.9181L113.105 23.0819L113.719 15.616L111.726 15.4522ZM112.109 22H107.941V24H112.109V22ZM108.938 23.083L110.029 9.99214L108.035 9.82605L106.945 22.917L108.938 23.083ZM109.032 10.9091H112.995V8.90909H109.032V10.9091ZM111.999 9.82429L111.794 12.2277L113.787 12.3973L113.991 9.99389L111.999 9.82429ZM112.79 13.3125H112.935V11.3125H112.79V13.3125ZM113.851 12.715C114.122 12.0981 114.532 11.6277 115.096 11.2806L114.048 9.57732C113.134 10.1394 112.453 10.9247 112.02 11.91L113.851 12.715ZM115.101 11.2777C115.663 10.9276 116.33 10.7386 117.137 10.7386V8.73864C116.001 8.73864 114.958 9.00994 114.043 9.58025L115.101 11.2777ZM117.137 10.7386C117.9 10.7386 118.488 10.9077 118.947 11.1978L120.015 9.50678C119.179 8.97863 118.204 8.73864 117.137 8.73864V10.7386ZM118.947 11.1978C119.414 11.4926 119.763 11.9034 120 12.4635L121.842 11.6842C121.454 10.7671 120.843 10.0301 120.015 9.50678L118.947 11.1978ZM120.003 12.4695C120.241 13.0234 120.345 13.7102 120.266 14.5642L122.258 14.7483C122.361 13.6364 122.237 12.6016 121.84 11.6782L120.003 12.4695ZM120.266 14.5728L119.567 22.9165L121.56 23.0835L122.259 14.7397L120.266 14.5728ZM120.563 22H116.404V24H120.563V22ZM117.401 23.0824L118.023 15.5568L116.03 15.392L115.408 22.9176L117.401 23.0824ZM118.023 15.5607C118.099 14.6771 117.945 13.8205 117.391 13.1446L115.844 14.4122C115.96 14.5545 116.078 14.8286 116.03 15.3881L118.023 15.5607ZM117.395 13.1498C116.824 12.4433 116.002 12.1562 115.117 12.1562V14.1562C115.561 14.1562 115.74 14.284 115.839 14.407L117.395 13.1498ZM115.117 12.1562C114.53 12.1562 113.971 12.2892 113.463 12.5725L114.436 14.3195C114.621 14.2165 114.84 14.1562 115.117 14.1562V12.1562ZM113.474 12.5665C112.965 12.8419 112.556 13.2383 112.253 13.7331L113.958 14.7782C114.087 14.5685 114.241 14.4252 114.425 14.3256L113.474 12.5665ZM112.247 13.7432C111.945 14.2496 111.782 14.8272 111.726 15.4436L113.718 15.6246C113.753 15.241 113.846 14.9663 113.965 14.7681L112.247 13.7432ZM131.615 9.90909L132.611 9.99488L132.705 8.90909H131.615V9.90909ZM131.351 12.9773V13.9773H132.268L132.347 13.0631L131.351 12.9773ZM123.092 12.9773L122.096 12.8915L122.003 13.9773H123.092V12.9773ZM123.357 9.90909V8.90909H122.439L122.36 9.8233L123.357 9.90909ZM125.342 6.77273V5.77273H124.422L124.346 6.6903L125.342 6.77273ZM129.51 6.77273L130.507 6.85548L130.596 5.77273H129.51V6.77273ZM128.504 18.8835L129.5 18.9721L129.501 18.9663L128.504 18.8835ZM128.572 19.5057L127.653 19.8996L127.662 19.9197L127.671 19.9395L128.572 19.5057ZM128.913 19.8381L128.507 20.7519L128.522 20.7582L128.536 20.7642L128.913 19.8381ZM129.979 19.8807L129.8 18.8968L129.794 18.8978L129.979 19.8807ZM130.405 19.804L131.397 19.6803L131.267 18.6364L130.231 18.8192L130.405 19.804ZM130.78 22.8125L131.072 23.7689L131.876 23.5232L131.772 22.6888L130.78 22.8125ZM129.919 23.0256L129.708 22.048L129.7 22.0499L129.691 22.052L129.919 23.0256ZM128.624 23.1875L128.664 24.1867L128.669 24.1865L128.624 23.1875ZM126.126 22.8381L125.743 23.7617L125.752 23.7655L126.126 22.8381ZM124.643 21.5426L123.761 22.0137L123.765 22.0203L124.643 21.5426ZM124.303 19.3438L125.298 19.4401L125.299 19.4262L124.303 19.3438ZM130.619 9.8233L130.355 12.8915L132.347 13.0631L132.611 9.99488L130.619 9.8233ZM131.351 11.9773H123.092V13.9773H131.351V11.9773ZM124.089 13.0631L124.353 9.99488L122.36 9.8233L122.096 12.8915L124.089 13.0631ZM123.357 10.9091H131.615V8.90909H123.357V10.9091ZM125.342 7.77273H129.51V5.77273H125.342V7.77273ZM128.513 6.68997L127.508 18.8008L129.501 18.9663L130.507 6.85548L128.513 6.68997ZM127.508 18.795C127.477 19.1418 127.496 19.5327 127.653 19.8996L129.492 19.1118C129.503 19.1394 129.501 19.1469 129.498 19.1219C129.496 19.0967 129.494 19.0486 129.5 18.9721L127.508 18.795ZM127.671 19.9395C127.847 20.3032 128.134 20.5859 128.507 20.7519L129.319 18.9243C129.345 18.9355 129.378 18.9558 129.411 18.9878C129.444 19.0197 129.463 19.0511 129.473 19.0719L127.671 19.9395ZM128.536 20.7642C128.842 20.8889 129.166 20.9318 129.476 20.9318V18.9318C129.411 18.9318 129.365 18.9272 129.333 18.922C129.302 18.9168 129.29 18.9116 129.291 18.912L128.536 20.7642ZM129.476 20.9318C129.702 20.9318 129.932 20.9068 130.163 20.8636L129.794 18.8978C129.661 18.9227 129.556 18.9318 129.476 18.9318V20.9318ZM130.158 20.8646C130.345 20.8305 130.485 20.8053 130.579 20.7888L130.231 18.8192C130.132 18.8367 129.988 18.8626 129.8 18.8968L130.158 20.8646ZM129.413 19.9277L129.788 22.9362L131.772 22.6888L131.397 19.6803L129.413 19.9277ZM130.488 21.8561C130.323 21.9065 130.068 21.9706 129.708 22.048L130.13 24.0031C130.509 23.9214 130.828 23.8435 131.072 23.7689L130.488 21.8561ZM129.691 22.052C129.404 22.1193 129.036 22.1677 128.578 22.1885L128.669 24.1865C129.211 24.1618 129.707 24.1023 130.147 23.9992L129.691 22.052ZM128.583 22.1883C127.689 22.2243 127.007 22.115 126.5 21.9107L125.752 23.7655C126.598 24.1066 127.581 24.2302 128.664 24.1867L128.583 22.1883ZM126.51 21.9145C126.03 21.7154 125.721 21.4309 125.522 21.065L123.765 22.0203C124.202 22.8248 124.882 23.4039 125.743 23.7616L126.51 21.9145ZM125.526 21.0716C125.332 20.7094 125.225 20.1887 125.298 19.4401L123.307 19.2474C123.209 20.2601 123.33 21.2053 123.761 22.0136L125.526 21.0716ZM125.299 19.4262L126.339 6.85516L124.346 6.6903L123.306 19.2613L125.299 19.4262ZM144.657 13.9062L144.684 14.9059L145.653 14.8798L145.657 13.9106L144.657 13.9062ZM140.864 14.0085L139.866 14.0696L139.925 15.0342L140.891 15.0082L140.864 14.0085ZM140.609 13.2756L139.801 13.865V13.865L140.609 13.2756ZM139.987 12.7812L139.547 13.6796L139.559 13.6854L139.571 13.6909L139.987 12.7812ZM137.745 12.9176L138.238 13.7874L137.745 12.9176ZM137.131 13.7784L136.135 13.6993L136.134 13.7036L137.131 13.7784ZM138.461 14.8011L138.255 15.7797L138.264 15.7815L138.273 15.7832L138.461 14.8011ZM140.95 15.2784L141.141 14.2968L141.138 14.2963L140.95 15.2784ZM143.779 16.5483L143.075 17.2588L143.079 17.262L143.779 16.5483ZM144.572 18.9176L145.568 19.0076L145.568 18.9983L144.572 18.9176ZM143.6 21.2102L142.848 20.5508L142.845 20.5545L143.6 21.2102ZM141.367 22.7188L141.723 23.6534L141.728 23.6515L141.367 22.7188ZM133.867 22.0881L133.266 22.8875L133.867 22.0881ZM132.256 18.9943L132.231 17.9946L131.221 18.0199L131.257 19.0295L132.256 18.9943ZM136.347 18.892L137.342 18.7855L137.243 17.8693L136.322 17.8924L136.347 18.892ZM136.944 19.983L136.359 20.794L136.368 20.8003L136.944 19.983ZM138.308 20.358L138.318 19.358L138.308 20.358ZM139.714 20.0256L139.201 19.1669L139.195 19.1704L139.714 20.0256ZM140.336 19.1562L141.331 19.2526L141.334 19.2257L141.335 19.1988L140.336 19.1562ZM140.012 18.517L139.439 19.3363L140.012 18.517ZM138.87 18.1165L139.068 17.1362L139.056 17.1339L138.87 18.1165ZM136.62 17.6903L136.434 18.6729L136.434 18.6729L136.62 17.6903ZM133.773 16.3352L133.032 17.0067L133.038 17.0132L133.773 16.3352ZM133.006 13.7955L134.003 13.8835L134.003 13.8747L133.006 13.7955ZM133.876 11.6051L134.638 12.2524L134.641 12.2488L133.876 11.6051ZM135.964 10.2159L135.624 9.27541L135.964 10.2159ZM143.191 10.8551L142.585 11.6507L142.59 11.6546L143.191 10.8551ZM144.63 12.9066L140.837 13.0089L140.891 15.0082L144.684 14.9059L144.63 12.9066ZM141.862 13.9474C141.835 13.4926 141.691 13.0618 141.416 12.6861L139.801 13.865C139.834 13.9098 139.86 13.9676 139.866 14.0696L141.862 13.9474ZM141.416 12.6861C141.152 12.3232 140.803 12.0546 140.402 11.8716L139.571 13.6909C139.693 13.7466 139.759 13.8075 139.801 13.865L141.416 12.6861ZM140.426 11.8829C140.005 11.677 139.544 11.5938 139.075 11.5938V13.5938C139.31 13.5938 139.457 13.6355 139.547 13.6796L140.426 11.8829ZM139.075 11.5938C138.423 11.5938 137.805 11.7341 137.252 12.0478L138.238 13.7874C138.447 13.6693 138.715 13.5938 139.075 13.5938V11.5938ZM137.252 12.0478C136.654 12.3866 136.195 12.9358 136.135 13.6993L138.128 13.8575C138.129 13.8528 138.129 13.8558 138.126 13.863C138.125 13.8662 138.124 13.8693 138.122 13.8718C138.121 13.8742 138.12 13.8754 138.12 13.8752C138.121 13.875 138.127 13.8666 138.144 13.8513C138.162 13.8358 138.192 13.8137 138.238 13.7874L137.252 12.0478ZM136.134 13.7036C136.092 14.2634 136.316 14.7492 136.695 15.1045L138.062 13.6455C138.059 13.6422 138.083 13.6642 138.104 13.7153C138.127 13.769 138.131 13.8201 138.129 13.8532L136.134 13.7036ZM136.695 15.1045C137.096 15.4809 137.705 15.664 138.255 15.7797L138.667 13.8226C138.431 13.7729 138.264 13.7229 138.152 13.6789C138.031 13.6313 138.024 13.6098 138.062 13.6455L136.695 15.1045ZM138.273 15.7832L140.761 16.2605L141.138 14.2963L138.649 13.819L138.273 15.7832ZM140.758 16.26C141.946 16.4913 142.671 16.8577 143.075 17.2587L144.483 15.8378C143.683 15.0457 142.521 14.5656 141.141 14.2968L140.758 16.26ZM143.079 17.262C143.44 17.6169 143.635 18.0976 143.575 18.837L145.568 18.9983C145.668 17.7717 145.334 16.6729 144.48 15.8345L143.079 17.262ZM143.576 18.8277C143.515 19.5034 143.273 20.0667 142.848 20.5508L144.352 21.8697C145.064 21.0583 145.47 20.0932 145.568 19.0076L143.576 18.8277ZM142.845 20.5545C142.405 21.061 141.805 21.4775 141.007 21.786L141.728 23.6515C142.782 23.244 143.67 22.6549 144.355 21.8659L142.845 20.5545ZM141.012 21.7841C140.216 22.0867 139.299 22.2472 138.248 22.2472V24.2472C139.503 24.2472 140.666 24.0553 141.723 23.6534L141.012 21.7841ZM138.248 22.2472C136.475 22.2472 135.259 21.8827 134.468 21.2886L133.266 22.8875C134.533 23.8389 136.237 24.2472 138.248 24.2472V22.2472ZM134.468 21.2886C133.682 20.698 133.291 19.9481 133.256 18.9591L131.257 19.0295C131.313 20.62 131.996 21.9327 133.266 22.8875L134.468 21.2886ZM132.281 19.994L136.372 19.8917L136.322 17.8924L132.231 17.9946L132.281 19.994ZM135.353 18.9986C135.43 19.7195 135.752 20.3564 136.359 20.794L137.529 19.1719C137.442 19.1095 137.367 19.0192 137.342 18.7855L135.353 18.9986ZM136.368 20.8003C136.926 21.1942 137.597 21.3508 138.297 21.3579L138.318 19.358C137.893 19.3537 137.654 19.2604 137.52 19.1656L136.368 20.8003ZM138.297 21.3579C138.994 21.3649 139.659 21.2283 140.232 20.8808L139.195 19.1704C139.019 19.2774 138.746 19.3623 138.318 19.358L138.297 21.3579ZM140.226 20.8842C140.803 20.5398 141.259 20.0007 141.331 19.2526L139.341 19.0599C139.34 19.0633 139.34 19.0613 139.342 19.0567C139.344 19.0521 139.345 19.0515 139.342 19.0558C139.335 19.065 139.301 19.1071 139.201 19.1669L140.226 20.8842ZM141.335 19.1988C141.362 18.5753 141.08 18.0437 140.586 17.6978L139.439 19.3363C139.439 19.3368 139.403 19.3105 139.371 19.2481C139.339 19.1842 139.336 19.1307 139.337 19.1137L141.335 19.1988ZM140.586 17.6978C140.182 17.4155 139.632 17.2503 139.068 17.1363L138.672 19.0967C139.176 19.1986 139.387 19.3004 139.439 19.3363L140.586 17.6978ZM139.056 17.1339L136.806 16.7078L136.434 18.6729L138.684 19.099L139.056 17.1339ZM136.806 16.7078C135.634 16.4857 134.917 16.1004 134.508 15.6572L133.038 17.0132C133.845 17.8882 135.027 18.4064 136.434 18.6729L136.806 16.7078ZM134.515 15.6638C134.128 15.2375 133.932 14.6803 134.003 13.8835L132.01 13.7074C131.899 14.9674 132.214 16.1034 133.032 17.0066L134.515 15.6638ZM134.003 13.8747C134.056 13.2063 134.275 12.6802 134.638 12.2523L133.113 10.9579C132.454 11.7346 132.093 12.6687 132.01 13.7162L134.003 13.8747ZM134.641 12.2488C135.02 11.7978 135.559 11.4256 136.304 11.1564L135.624 9.27541C134.608 9.64262 133.754 10.1965 133.11 10.9614L134.641 12.2488ZM136.304 11.1564C137.053 10.8857 137.954 10.7386 139.023 10.7386V8.73864C137.775 8.73864 136.636 8.90976 135.624 9.27541L136.304 11.1564ZM139.023 10.7386C140.704 10.7386 141.847 11.0881 142.585 11.6507L143.797 10.0596C142.581 9.13347 140.945 8.73864 139.023 8.73864V10.7386ZM142.59 11.6546C143.305 12.1918 143.661 12.9026 143.657 13.9019L145.657 13.9106C145.664 12.319 145.043 10.9957 143.792 10.0557L142.59 11.6546Z" fill="white" mask="url(#path-2-outside-1_526_657)"/>
</svg>
