<svg width="15" height="14" viewBox="0 0 15 14" fill="none" xmlns="http://www.w3.org/2000/svg">
<path d="M12.9892 6.755L7.73919 1.50501C7.52335 1.28917 7.22585 1.16667 6.91669 1.16667H2.83335C2.19169 1.16667 1.66669 1.69167 1.66669 2.33334V6.41667C1.66669 6.72584 1.78919 7.02334 2.01085 7.23917L2.25002 7.47251C2.77502 7.15751 3.38169 7 4.00002 7C5.93085 7 7.50002 8.56917 7.50002 10.5C7.50002 11.1183 7.33669 11.7192 7.02169 12.25L7.25502 12.4833C7.47085 12.705 7.77419 12.8333 8.08335 12.8333C8.39252 12.8333 8.69002 12.7108 8.90585 12.4892L12.9892 8.40584C13.2109 8.19 13.3334 7.8925 13.3334 7.58334C13.3334 7.27417 13.2109 6.97667 12.9892 6.755ZM3.70835 4.08334C3.22419 4.08334 2.83335 3.6925 2.83335 3.20834C2.83335 2.72417 3.22419 2.33334 3.70835 2.33334C4.19252 2.33334 4.58335 2.72417 4.58335 3.20834C4.58335 3.6925 4.19252 4.08334 3.70835 4.08334ZM5.53419 8.32417L3.27669 10.5992L2.48919 9.8L1.66669 10.6283L3.27085 12.25L6.35085 9.14667L5.53419 8.32417Z" fill="#3A3A3A"/>
</svg>
