<svg width="128" height="129" viewBox="0 0 128 129" fill="none" xmlns="http://www.w3.org/2000/svg">
<path d="M13.333 21.8333C13.333 20.4188 13.8949 19.0623 14.8951 18.0621C15.8953 17.0619 17.2519 16.5 18.6663 16.5H50.6663L63.9997 32.5H109.333C110.747 32.5 112.104 33.0619 113.104 34.0621C114.104 35.0623 114.666 36.4188 114.666 37.8333V107.167C114.666 108.581 114.104 109.938 113.104 110.938C112.104 111.938 110.747 112.5 109.333 112.5H18.6663C17.2519 112.5 15.8953 111.938 14.8951 110.938C13.8949 109.938 13.333 108.581 13.333 107.167V21.8333Z" stroke="white" stroke-width="6" stroke-linejoin="round"/>
<path d="M50.666 59.1665L77.3327 85.8332M77.3327 59.1665L50.666 85.8332" stroke="white" stroke-width="6" stroke-linecap="round" stroke-linejoin="round"/>
</svg>
