<svg width="14" height="14" viewBox="0 0 14 14" fill="none" xmlns="http://www.w3.org/2000/svg">
<path d="M12.8333 6.99996C12.8333 3.77821 10.2217 1.16663 6.99996 1.16663C3.77821 1.16663 1.16663 3.77821 1.16663 6.99996C1.16663 10.2217 3.77821 12.8333 6.99996 12.8333" stroke="#D9D9D9" stroke-opacity="0.8" stroke-width="0.5" stroke-linecap="round" stroke-linejoin="round"/>
<path d="M7.58335 1.1958C7.58335 1.1958 9.33335 3.49997 9.33335 6.99997M6.41668 12.8041C6.41668 12.8041 4.66668 10.5 4.66668 6.99997C4.66668 3.49997 6.41668 1.1958 6.41668 1.1958M1.53418 9.04163H7.00001M1.53418 4.9583H12.4658M11.0833 10.2083V11.0833H11.9583" stroke="#D9D9D9" stroke-opacity="0.8" stroke-width="0.5" stroke-linecap="round" stroke-linejoin="round"/>
<path d="M11.0833 13.4167C11.7022 13.4167 12.2957 13.1708 12.7332 12.7332C13.1708 12.2957 13.4167 11.7022 13.4167 11.0833C13.4167 10.4645 13.1708 9.871 12.7332 9.43342C12.2957 8.99583 11.7022 8.75 11.0833 8.75C10.4645 8.75 9.871 8.99583 9.43342 9.43342C8.99583 9.871 8.75 10.4645 8.75 11.0833C8.75 11.7022 8.99583 12.2957 9.43342 12.7332C9.871 13.1708 10.4645 13.4167 11.0833 13.4167Z" stroke="#D9D9D9" stroke-opacity="0.8" stroke-width="0.5" stroke-linecap="round" stroke-linejoin="round"/>
</svg>
