<svg width="33" height="34" viewBox="0 0 33 34" fill="none" xmlns="http://www.w3.org/2000/svg">
<path d="M30.1667 16.2708C30.1667 8.21646 23.6377 1.6875 15.5833 1.6875C7.52896 1.6875 1 8.21646 1 16.2708C1 24.3252 7.52896 30.8542 15.5833 30.8542" stroke="#D9D9D9" stroke-opacity="0.8" stroke-width="1.5" stroke-linecap="round" stroke-linejoin="round"/>
<path d="M17.0417 1.76041C17.0417 1.76041 21.4167 7.52083 21.4167 16.2708M14.125 30.7812C14.125 30.7812 9.75001 25.0208 9.75001 16.2708C9.75001 7.52083 14.125 1.76041 14.125 1.76041M1.91876 21.375H15.5833M1.91876 11.1667H29.2479M25.7917 24.2917V26.4792H27.9792" stroke="#D9D9D9" stroke-opacity="0.8" stroke-width="1.5" stroke-linecap="round" stroke-linejoin="round"/>
<path d="M25.7916 32.3125C27.3387 32.3125 28.8225 31.6979 29.9164 30.604C31.0104 29.51 31.625 28.0263 31.625 26.4792C31.625 24.9321 31.0104 23.4483 29.9164 22.3544C28.8225 21.2604 27.3387 20.6458 25.7916 20.6458C24.2445 20.6458 22.7608 21.2604 21.6669 22.3544C20.5729 23.4483 19.9583 24.9321 19.9583 26.4792C19.9583 28.0263 20.5729 29.51 21.6669 30.604C22.7608 31.6979 24.2445 32.3125 25.7916 32.3125Z" stroke="#D9D9D9" stroke-opacity="0.8" stroke-width="1.5" stroke-linecap="round" stroke-linejoin="round"/>
</svg>
