<svg width="16" height="16" viewBox="0 0 16 16" fill="none" xmlns="http://www.w3.org/2000/svg">
<path d="M2.52584 6.02449C2.05425 6.27977 0.817767 6.80104 1.57087 7.4533C1.93875 7.7719 2.34848 7.99977 2.8636 7.99977H5.80303C6.31815 7.99977 6.72785 7.7719 7.09578 7.4533C7.84885 6.80104 6.61238 6.27977 6.14079 6.02449C5.03492 5.42587 3.63171 5.42587 2.52584 6.02449Z" stroke="white" stroke-width="1.5"/>
<path d="M5.83331 2.84848C5.83331 3.68527 5.16174 4.36363 4.33331 4.36363C3.50489 4.36363 2.83331 3.68527 2.83331 2.84848C2.83331 2.01168 3.50489 1.33333 4.33331 1.33333C5.16174 1.33333 5.83331 2.01168 5.83331 2.84848Z" stroke="white" stroke-width="1.5"/>
<path d="M2.66669 10C2.66669 12.2114 4.45526 14 6.66669 14L6.09526 12.8571" stroke="white" stroke-width="1.5" stroke-linecap="round" stroke-linejoin="round"/>
<path d="M13.3333 6C13.3333 3.78857 11.5447 2 9.33331 2L9.90471 3.14286" stroke="white" stroke-width="1.5" stroke-linecap="round" stroke-linejoin="round"/>
<path d="M9.85923 12.6911C9.38763 12.9464 8.15116 13.4677 8.90423 14.1199C9.27216 14.4385 9.68182 14.6664 10.197 14.6664H13.1364C13.6516 14.6664 14.0612 14.4385 14.4292 14.1199C15.1822 13.4677 13.9458 12.9464 13.4742 12.6911C12.3683 12.0925 10.9651 12.0925 9.85923 12.6911Z" stroke="white" stroke-width="1.5"/>
<path d="M13.1667 9.51513C13.1667 10.3519 12.4951 11.0303 11.6667 11.0303C10.8383 11.0303 10.1667 10.3519 10.1667 9.51513C10.1667 8.67833 10.8383 8 11.6667 8C12.4951 8 13.1667 8.67833 13.1667 9.51513Z" stroke="white" stroke-width="1.5"/>
</svg>
