<svg width="16" height="16" viewBox="0 0 16 16" fill="none" xmlns="http://www.w3.org/2000/svg">
<path d="M12.7 3.27335C12.0888 2.65597 11.3608 2.16646 10.5584 1.83339C9.75603 1.50031 8.89538 1.33033 8.02664 1.33335C4.38664 1.33335 1.41997 4.30002 1.41997 7.94002C1.41997 9.10669 1.72664 10.24 2.29997 11.24L1.36664 14.6667L4.86664 13.7467C5.8333 14.2734 6.91997 14.5534 8.02664 14.5534C11.6666 14.5534 14.6333 11.5867 14.6333 7.94669C14.6333 6.18002 13.9466 4.52002 12.7 3.27335ZM8.02664 13.4334C7.03997 13.4334 6.0733 13.1667 5.22664 12.6667L5.02664 12.5467L2.94664 13.0934L3.49997 11.0667L3.36664 10.86C2.81847 9.98466 2.5274 8.97285 2.52664 7.94002C2.52664 4.91335 4.9933 2.44669 8.01997 2.44669C9.48664 2.44669 10.8666 3.02002 11.9 4.06002C12.4116 4.56933 12.8171 5.17513 13.0929 5.8423C13.3687 6.50948 13.5093 7.22476 13.5066 7.94669C13.52 10.9734 11.0533 13.4334 8.02664 13.4334ZM11.04 9.32669C10.8733 9.24669 10.06 8.84669 9.9133 8.78669C9.75997 8.73335 9.6533 8.70669 9.53997 8.86669C9.42664 9.03335 9.1133 9.40669 9.01997 9.51335C8.92664 9.62669 8.82664 9.64002 8.65997 9.55335C8.4933 9.47335 7.95997 9.29335 7.3333 8.73335C6.83997 8.29335 6.5133 7.75335 6.4133 7.58669C6.31997 7.42002 6.39997 7.33335 6.48664 7.24669C6.55997 7.17335 6.6533 7.05335 6.7333 6.96002C6.8133 6.86669 6.84664 6.79335 6.89997 6.68669C6.9533 6.57335 6.92664 6.48002 6.88664 6.40002C6.84664 6.32002 6.5133 5.50669 6.37997 5.17335C6.24664 4.85335 6.10664 4.89335 6.00664 4.88669H5.68664C5.5733 4.88669 5.39997 4.92669 5.24664 5.09335C5.09997 5.26002 4.6733 5.66002 4.6733 6.47335C4.6733 7.28669 5.26664 8.07335 5.34664 8.18002C5.42664 8.29335 6.5133 9.96002 8.16664 10.6734C8.55997 10.8467 8.86664 10.9467 9.10664 11.02C9.49997 11.1467 9.85997 11.1267 10.1466 11.0867C10.4666 11.04 11.1266 10.6867 11.26 10.3C11.4 9.91335 11.4 9.58669 11.3533 9.51335C11.3066 9.44002 11.2066 9.40669 11.04 9.32669Z" fill="white"/>
</svg>
