<svg width="200" height="200" viewBox="0 0 200 200" fill="none" xmlns="http://www.w3.org/2000/svg">
<path d="M91.6667 108.333H133.333M66.6667 108.333H66.7415M108.333 141.667H66.6667M133.333 141.667H133.258" stroke="#9D9696" stroke-width="1.5" stroke-linecap="round" stroke-linejoin="round"/>
<path d="M150 16.6667V33.3333M50 16.6667V33.3333" stroke="#9D9696" stroke-width="1.5" stroke-linecap="round" stroke-linejoin="round"/>
<path d="M20.8333 102.027C20.8333 65.7162 20.8333 47.5607 31.2677 36.2803C41.702 25 58.4958 25 92.0833 25H107.917C141.504 25 158.298 25 168.733 36.2803C179.167 47.5607 179.167 65.7162 179.167 102.027V106.307C179.167 142.617 179.167 160.772 168.733 172.053C158.298 183.333 141.504 183.333 107.917 183.333H92.0833C58.4958 183.333 41.702 183.333 31.2677 172.053C20.8333 160.772 20.8333 142.617 20.8333 106.307V102.027Z" stroke="#9D9696" stroke-width="1.5" stroke-linecap="round" stroke-linejoin="round"/>
<path d="M25 66.6667H175" stroke="#9D9696" stroke-width="1.5" stroke-linecap="round" stroke-linejoin="round"/>
</svg>
