<svg width="16" height="16" viewBox="0 0 16 16" fill="none" xmlns="http://www.w3.org/2000/svg">
<path d="M14.3332 2.66668H12.5555V4.00001C12.5555 4.12841 12.5302 4.25556 12.481 4.37419C12.4319 4.49282 12.3599 4.60061 12.2691 4.6914C12.1783 4.7822 12.0705 4.85422 11.9519 4.90336C11.8332 4.9525 11.7061 4.97779 11.5777 4.97779C11.4493 4.97779 11.3221 4.9525 11.2035 4.90336C11.0849 4.85422 10.9771 4.7822 10.8863 4.6914C10.7955 4.60061 10.7235 4.49282 10.6743 4.37419C10.6252 4.25556 10.5999 4.12841 10.5999 4.00001V2.66668H5.42212V4.00001C5.42212 4.25933 5.3191 4.50803 5.13574 4.6914C4.95237 4.87477 4.70366 4.97779 4.44434 4.97779C4.18502 4.97779 3.93632 4.87477 3.75295 4.6914C3.56958 4.50803 3.46656 4.25933 3.46656 4.00001V2.66668H1.68879C1.58302 2.66547 1.47808 2.68549 1.38019 2.72555C1.28229 2.76561 1.19342 2.82489 1.11884 2.89989C1.04425 2.97489 0.985462 3.06409 0.945948 3.1622C0.906434 3.26032 0.886997 3.36536 0.888786 3.47112V13.4178C0.88702 13.5217 0.905739 13.6249 0.943873 13.7216C0.982007 13.8182 1.03881 13.9064 1.11104 13.9811C1.18326 14.0558 1.2695 14.1156 1.36482 14.1569C1.46013 14.1983 1.56267 14.2205 1.66656 14.2222H14.3332C14.4371 14.2205 14.5397 14.1983 14.635 14.1569C14.7303 14.1156 14.8165 14.0558 14.8888 13.9811C14.961 13.9064 15.0178 13.8182 15.0559 13.7216C15.0941 13.6249 15.1128 13.5217 15.111 13.4178V3.47112C15.1128 3.36723 15.0941 3.264 15.0559 3.16734C15.0178 3.07069 14.961 2.98249 14.8888 2.90778C14.8165 2.83308 14.7303 2.77334 14.635 2.73197C14.5397 2.6906 14.4371 2.66841 14.3332 2.66668ZM4.44434 11.5556H3.55545V10.6667H4.44434V11.5556ZM4.44434 9.33334H3.55545V8.44446H4.44434V9.33334ZM4.44434 7.11112H3.55545V6.22223H4.44434V7.11112ZM7.11101 11.5556H6.22212V10.6667H7.11101V11.5556ZM7.11101 9.33334H6.22212V8.44446H7.11101V9.33334ZM7.11101 7.11112H6.22212V6.22223H7.11101V7.11112ZM9.77768 11.5556H8.88879V10.6667H9.77768V11.5556ZM9.77768 9.33334H8.88879V8.44446H9.77768V9.33334ZM9.77768 7.11112H8.88879V6.22223H9.77768V7.11112ZM12.4443 11.5556H11.5555V10.6667H12.4443V11.5556ZM12.4443 9.33334H11.5555V8.44446H12.4443V9.33334ZM12.4443 7.11112H11.5555V6.22223H12.4443V7.11112Z" fill="white"/>
<path d="M4.44444 4.44447C4.56232 4.44447 4.67536 4.39765 4.75871 4.3143C4.84206 4.23095 4.88889 4.1179 4.88889 4.00003V1.33336C4.88889 1.21549 4.84206 1.10244 4.75871 1.01909C4.67536 0.935741 4.56232 0.888916 4.44444 0.888916C4.32657 0.888916 4.21352 0.935741 4.13017 1.01909C4.04683 1.10244 4 1.21549 4 1.33336V4.00003C4 4.1179 4.04683 4.23095 4.13017 4.3143C4.21352 4.39765 4.32657 4.44447 4.44444 4.44447Z" fill="white"/>
<path d="M11.5558 4.44447C11.6736 4.44447 11.7867 4.39765 11.87 4.3143C11.9534 4.23095 12.0002 4.1179 12.0002 4.00003V1.33336C12.0002 1.21549 11.9534 1.10244 11.87 1.01909C11.7867 0.935741 11.6736 0.888916 11.5558 0.888916C11.4379 0.888916 11.3249 0.935741 11.2415 1.01909C11.1582 1.10244 11.1113 1.21549 11.1113 1.33336V4.00003C11.1113 4.1179 11.1582 4.23095 11.2415 4.3143C11.3249 4.39765 11.4379 4.44447 11.5558 4.44447Z" fill="white"/>
</svg>
