<svg width="16" height="16" viewBox="0 0 16 16" fill="none" xmlns="http://www.w3.org/2000/svg">
<path d="M4.66663 4.66669H3.99996C3.64634 4.66669 3.3072 4.80716 3.05715 5.05721C2.8071 5.30726 2.66663 5.6464 2.66663 6.00002V12C2.66663 12.3536 2.8071 12.6928 3.05715 12.9428C3.3072 13.1929 3.64634 13.3334 3.99996 13.3334H9.99996C10.3536 13.3334 10.6927 13.1929 10.9428 12.9428C11.1928 12.6928 11.3333 12.3536 11.3333 12V11.3334" stroke="#D9D9D9" stroke-linecap="round" stroke-linejoin="round"/>
<path d="M10.6667 3.33334L12.6667 5.33334M13.59 4.39001C13.8526 4.12745 14.0001 3.77133 14.0001 3.40001C14.0001 3.02869 13.8526 2.67257 13.59 2.41001C13.3274 2.14745 12.9713 1.99994 12.6 1.99994C12.2287 1.99994 11.8726 2.14745 11.61 2.41001L6 8.00001V10H8L13.59 4.39001Z" stroke="#D9D9D9" stroke-linecap="round" stroke-linejoin="round"/>
</svg>
