<svg width="11" height="10" viewBox="0 0 11 10" fill="none" xmlns="http://www.w3.org/2000/svg">
<path d="M1.75 5.41666C3.25 2.08332 7.75 2.08332 9.25 5.41666" stroke="white" stroke-width="0.5" stroke-linecap="round" stroke-linejoin="round"/>
<path d="M5.5 7.08331C5.33585 7.08331 5.1733 7.05098 5.02165 6.98816C4.86999 6.92534 4.73219 6.83327 4.61612 6.7172C4.50004 6.60112 4.40797 6.46332 4.34515 6.31167C4.28233 6.16001 4.25 5.99747 4.25 5.83331C4.25 5.66916 4.28233 5.50662 4.34515 5.35496C4.40797 5.2033 4.50004 5.0655 4.61612 4.94943C4.73219 4.83336 4.86999 4.74128 5.02165 4.67846C5.1733 4.61565 5.33585 4.58331 5.5 4.58331C5.83152 4.58331 6.14946 4.71501 6.38388 4.94943C6.6183 5.18385 6.75 5.50179 6.75 5.83331C6.75 6.16483 6.6183 6.48278 6.38388 6.7172C6.14946 6.95162 5.83152 7.08331 5.5 7.08331Z" stroke="white" stroke-width="0.5" stroke-linecap="round" stroke-linejoin="round"/>
</svg>
