<svg width="14" height="14" viewBox="0 0 14 14" fill="none" xmlns="http://www.w3.org/2000/svg">
<path d="M2.62435 5.54102H2.33268C1.78271 5.54102 1.50773 5.54102 1.33687 5.71187C1.16602 5.88273 1.16602 6.15772 1.16602 6.70768V11.666C1.16602 12.216 1.16602 12.491 1.33687 12.6618C1.50773 12.8327 1.78271 12.8327 2.33268 12.8327H2.62435C3.17432 12.8327 3.4493 12.8327 3.62016 12.6618C3.79102 12.491 3.79102 12.216 3.79102 11.666V6.70768C3.79102 6.15772 3.79102 5.88273 3.62016 5.71187C3.4493 5.54102 3.17432 5.54102 2.62435 5.54102Z" stroke="white" stroke-width="0.6"/>
<path d="M3.79102 2.47852C3.79102 3.20339 3.20339 3.79102 2.47852 3.79102C1.75364 3.79102 1.16602 3.20339 1.16602 2.47852C1.16602 1.75364 1.75364 1.16602 2.47852 1.16602C3.20339 1.16602 3.79102 1.75364 3.79102 2.47852Z" stroke="white" stroke-width="0.6"/>
<path d="M7.18952 5.54102H6.70768C6.15772 5.54102 5.88273 5.54102 5.71187 5.71187C5.54102 5.88273 5.54102 6.15772 5.54102 6.70768V11.666C5.54102 12.216 5.54102 12.491 5.71187 12.6618C5.88273 12.8327 6.15772 12.8327 6.70768 12.8327H6.99935C7.54932 12.8327 7.8243 12.8327 7.99516 12.6618C8.16602 12.491 8.16602 12.216 8.16602 11.666L8.16607 9.62441C8.16607 8.65794 8.47407 7.87441 9.38396 7.87441C9.83884 7.87441 10.2077 8.26617 10.2077 8.74941V11.3744C10.2077 11.9244 10.2077 12.1994 10.3785 12.3702C10.5493 12.5411 10.8244 12.5411 11.3743 12.5411H11.6653C12.2151 12.5411 12.49 12.5411 12.6609 12.3703C12.8317 12.1995 12.8318 11.9245 12.8319 11.3747L12.8327 8.16613C12.8327 6.71643 11.4539 5.54116 10.0891 5.54116C9.31221 5.54116 8.61909 5.92199 8.16607 6.51752C8.16602 6.14996 8.16602 5.96621 8.08622 5.82977C8.03564 5.74335 7.96366 5.67141 7.87727 5.62086C7.74082 5.54102 7.55707 5.54102 7.18952 5.54102Z" stroke="white" stroke-width="0.6" stroke-linejoin="round"/>
</svg>
