<svg width="10" height="12" viewBox="0 0 10 12" fill="none" xmlns="http://www.w3.org/2000/svg">
<path d="M8.29996 2.09395C6.47762 0.301366 3.52304 0.301366 1.70071 2.09395C1.26804 2.51665 0.924238 3.02158 0.689509 3.57906C0.45478 4.13654 0.333862 4.73532 0.333862 5.3402C0.333862 5.94508 0.45478 6.54386 0.689509 7.10134C0.924238 7.65882 1.26804 8.16375 1.70071 8.58645L5.00004 11.8327L8.29996 8.58645C8.73263 8.16375 9.07643 7.65882 9.31116 7.10134C9.54589 6.54386 9.6668 5.94508 9.6668 5.3402C9.6668 4.73532 9.54589 4.13654 9.31116 3.57906C9.07643 3.02158 8.73263 2.51665 8.29996 2.09395ZM5.00004 6.87437C4.61038 6.87437 4.24463 6.7227 3.96871 6.44737C3.69556 6.17364 3.54216 5.80273 3.54216 5.41603C3.54216 5.02933 3.69556 4.65843 3.96871 4.3847C4.24404 4.10937 4.61038 3.9577 5.00004 3.9577C5.38971 3.9577 5.75604 4.10937 6.03137 4.3847C6.30452 4.65843 6.45792 5.02933 6.45792 5.41603C6.45792 5.80273 6.30452 6.17364 6.03137 6.44737C5.75604 6.7227 5.38971 6.87437 5.00004 6.87437Z" fill="#D9D9D9" fill-opacity="0.8"/>
</svg>
