<svg width="16" height="16" viewBox="0 0 16 16" fill="none" xmlns="http://www.w3.org/2000/svg">
<path d="M13.0052 9.66004C13.4414 8.84137 13.6687 7.92766 13.6668 7.00004C13.6668 3.87037 11.1298 1.33337 8.00017 1.33337C4.8705 1.33337 2.3335 3.87037 2.3335 7.00004C2.33115 8.33681 2.80369 9.63096 3.66684 10.6517L3.6735 10.66L3.6795 10.6667H3.66684L7.0295 14.2367C7.15416 14.369 7.30456 14.4745 7.47145 14.5465C7.63835 14.6186 7.81822 14.6558 8 14.6558C8.18179 14.6558 8.36166 14.6186 8.52856 14.5465C8.69545 14.4745 8.84585 14.369 8.9705 14.2367L12.3335 10.6667H12.3208L12.3262 10.6604L12.3268 10.6597C12.3508 10.631 12.3747 10.6022 12.3985 10.573C12.6298 10.2889 12.8329 9.98338 13.0052 9.66004ZM8.00184 9.16637C7.4714 9.16637 6.9627 8.95566 6.58762 8.58059C6.21255 8.20551 6.00184 7.69681 6.00184 7.16637C6.00184 6.63594 6.21255 6.12723 6.58762 5.75216C6.9627 5.37709 7.4714 5.16637 8.00184 5.16637C8.53227 5.16637 9.04098 5.37709 9.41605 5.75216C9.79112 6.12723 10.0018 6.63594 10.0018 7.16637C10.0018 7.69681 9.79112 8.20551 9.41605 8.58059C9.04098 8.95566 8.53227 9.16637 8.00184 9.16637Z" fill="#D9D9D9" fill-opacity="0.6"/>
</svg>
