<svg width="15" height="14" viewBox="0 0 15 14" fill="none" xmlns="http://www.w3.org/2000/svg">
<path d="M4.58331 4.08333H3.99998C3.69056 4.08333 3.39381 4.20624 3.17502 4.42504C2.95623 4.64383 2.83331 4.94058 2.83331 5.24999V10.5C2.83331 10.8094 2.95623 11.1062 3.17502 11.325C3.39381 11.5437 3.69056 11.6667 3.99998 11.6667H9.24998C9.5594 11.6667 9.85614 11.5437 10.0749 11.325C10.2937 11.1062 10.4166 10.8094 10.4166 10.5V9.91666" stroke="#3A3A3A" stroke-linecap="round" stroke-linejoin="round"/>
<path d="M9.83333 2.91667L11.5833 4.66667M12.3912 3.84125C12.621 3.61151 12.7501 3.29991 12.7501 2.975C12.7501 2.65009 12.621 2.3385 12.3912 2.10875C12.1615 1.87901 11.8499 1.74994 11.525 1.74994C11.2001 1.74994 10.8885 1.87901 10.6588 2.10875L5.75 7V8.75H7.5L12.3912 3.84125Z" stroke="#3A3A3A" stroke-linecap="round" stroke-linejoin="round"/>
</svg>
