<svg width="7" height="47" viewBox="0 0 7 47" fill="none" xmlns="http://www.w3.org/2000/svg">
<line x1="3.5" y1="8" x2="3.5" y2="38" stroke="white" stroke-dasharray="2 2"/>
<circle cx="3.5" cy="3.5" r="3.5" fill="#D9D9D9"/>
<path d="M7 43.5C7 45.433 5.433 47 3.5 47C1.567 47 0 45.433 0 43.5C0 41.567 1.567 40 3.5 40C5.433 40 7 41.567 7 43.5ZM0.362138 43.5C0.362138 45.233 1.76701 46.6379 3.5 46.6379C5.23299 46.6379 6.63786 45.233 6.63786 43.5C6.63786 41.767 5.23299 40.3621 3.5 40.3621C1.76701 40.3621 0.362138 41.767 0.362138 43.5Z" fill="#D9D9D9"/>
</svg>
