<svg width="14" height="14" viewBox="0 0 14 14" fill="none" xmlns="http://www.w3.org/2000/svg">
<path d="M6.99935 12.8327C10.221 12.8327 12.8327 10.221 12.8327 6.99935C12.8327 3.77769 10.221 1.16602 6.99935 1.16602C3.77769 1.16602 1.16602 3.77769 1.16602 6.99935C1.16602 7.80371 1.32881 8.57003 1.62324 9.26717C1.78597 9.65241 1.86733 9.84508 1.87741 9.99068C1.88748 10.1363 1.84463 10.2964 1.75893 10.6167L1.16602 12.8327L3.38196 12.2398C3.70228 12.1541 3.86244 12.1112 4.00803 12.1213C4.15362 12.1313 4.34626 12.2127 4.73155 12.3755C5.42869 12.6699 6.19499 12.8327 6.99935 12.8327Z" stroke="white" stroke-width="0.6" stroke-linejoin="round"/>
<path d="M5.01041 7.22074L5.51845 6.58975C5.73258 6.32381 5.99726 6.07624 6.01803 5.72214C6.02322 5.6327 5.96033 5.23115 5.83445 4.42807C5.78499 4.11246 5.49032 4.08398 5.23509 4.08398C4.90248 4.08398 4.73618 4.08398 4.57104 4.15942C4.36232 4.25476 4.14803 4.52283 4.101 4.74743C4.0638 4.92513 4.09145 5.04757 4.14675 5.29247C4.38162 6.33262 4.93262 7.35987 5.78701 8.21428C6.64143 9.06868 7.66868 9.6197 8.70883 9.85455C8.95371 9.90985 9.07615 9.9375 9.25389 9.90028C9.47848 9.85327 9.74652 9.63901 9.84189 9.43023C9.91732 9.26509 9.91732 9.09884 9.91732 8.76623C9.91732 8.51096 9.88885 8.21632 9.57321 8.16685C8.77013 8.04097 8.36863 7.97808 8.27914 7.98328C7.92506 8.00404 7.67749 8.2687 7.41155 8.48284L6.78056 8.99087" stroke="white" stroke-width="1.5"/>
</svg>
